<?xml version="1.0" encoding="UTF-8"?>
<svg width="121px" height="36px" viewBox="0 0 121 36" version="1.1" xmlns="http://www.w3.org/2000/svg" xmlns:xlink="http://www.w3.org/1999/xlink">
    <!-- Generator: Sketch 51.2 (57519) - http://www.bohemiancoding.com/sketch -->
    <title>及美网络logo</title>
    <desc>Created with Sketch.</desc>
    <defs></defs>
    <g id="商品管理" stroke="none" stroke-width="1" fill="none" fill-rule="evenodd">
        <g id="商品管理/分类管理/修改一级分类" transform="translate(-379.000000, -295.000000)">
            <g id="及美网络logo" transform="translate(379.000000, 295.000000)">
                <path d="M40.8560352,20.07 C41.4844493,19.2770485 41.9043172,18.3730837 42.2853304,17.4481057 C42.938326,15.8622026 43.347489,14.2128634 43.6277974,12.525859 C43.9425991,10.6322907 43.9846256,8.72444934 43.9572687,6.81185022 C43.953304,6.53431718 43.9203965,6.25678414 43.9148458,5.9792511 C43.9120705,5.82819383 43.8442731,5.79568282 43.7086784,5.79647577 C43.0564758,5.80123348 42.4038767,5.79132159 41.7520705,5.80242291 C41.5359912,5.80599119 41.4523348,5.74096916 41.4610573,5.5177533 C41.4753304,5.13674009 41.474141,4.75453744 41.4610573,4.37352423 C41.4539207,4.16299559 41.5344053,4.09876652 41.7385903,4.09876652 C44.2681057,4.10140969 46.797489,4.10048458 49.3267401,4.09599119 C50.8301762,4.09599119 52.3336123,4.10471366 53.836652,4.09281938 C54.1688987,4.09004405 54.4206608,4.17211454 54.6494273,4.42744493 C54.9979295,4.81876652 55.3797357,5.1807489 55.7595595,5.54273128 C55.905859,5.68229075 55.9054626,5.78933921 55.7940529,5.95030837 C54.9218062,7.21348018 53.9123789,8.35096916 52.7205727,9.32312775 C52.6904405,9.34770925 52.6622907,9.37427313 52.5897357,9.43889868 C52.7134361,9.44643172 52.7935242,9.45515419 52.8736123,9.45555066 C53.8675771,9.46229075 54.8615419,9.46268722 55.8555066,9.47973568 C55.9846927,9.48732568 56.1074534,9.53863908 56.2036123,9.62524229 C56.5743172,9.97374449 56.9220264,10.3464317 57.2907489,10.6957269 C57.4390308,10.8364758 57.4794714,10.9843612 57.4160352,11.1655507 C56.5509251,13.6304405 55.3543612,15.8776652 53.2296476,17.5131278 C53.0639207,17.640793 53.1023789,17.7038326 53.255022,17.8037445 C54.5308811,18.6363436 55.9165639,19.2381938 57.3514097,19.734185 C57.6923789,19.8531278 58.0404846,19.9498678 58.3822467,20.0676211 C58.4397357,20.0874449 58.5170485,20.16 58.5198238,20.2115419 C58.5337004,20.4720264 58.5261674,20.733304 58.5261674,21.0377974 C58.1693392,20.9612775 57.8410573,20.8970485 57.5143612,20.8189427 C55.4721145,20.3300881 53.4651542,19.7389427 51.5818943,18.7854185 C51.5025991,18.7457709 51.3646256,18.7588546 51.2777974,18.7988987 C49.344185,19.6992952 47.3292952,20.3776652 45.2933921,20.9993392 C45.2469672,21.0093985 45.1999594,21.016549 45.1526432,21.0207489 C45.1526432,20.732511 45.1415419,20.4561674 45.1609692,20.1818062 C45.1653304,20.1207489 45.2668282,20.0418502 45.3397797,20.0140969 C46.4740969,19.5839207 47.5810573,19.0946696 48.6348899,18.4928194 C49.0591189,18.2505727 49.467489,17.9809692 49.950793,17.68163 C49.0694273,16.8977974 48.3002643,16.0648018 47.7142731,15.0934361 C47.1282819,14.1220705 46.604141,13.1221586 46.0764317,12.1777533 C45.9773128,12.6630396 45.8869163,13.2220705 45.7477533,13.7684141 C45.0943612,16.3336123 43.7257269,18.4769604 41.8377093,20.3062996 C41.5260793,20.6084141 41.1839207,20.8788106 40.8560352,21.1638767 L40.8560352,20.07 Z M46.4491189,5.82502203 C46.3480176,7.88035242 46.2488987,9.91189427 46.1497797,11.961674 L48.2364317,11.961674 C48.6210132,11.961674 48.615859,11.961674 48.7193392,12.3236564 C49.1602203,13.8552423 50.0570485,15.0989868 51.185815,16.1920705 C51.463348,16.4612775 51.487533,16.4612775 51.7650661,16.1984141 C52.821674,15.1973128 53.6871806,14.0550661 54.2474009,12.705859 C54.4567401,12.2011454 54.5887665,11.6643172 54.7727313,11.0914097 L50.31,11.0914097 C50.31,10.4320705 50.3052423,9.80444934 50.3159471,9.17722467 C50.3159471,9.09792952 50.383348,9.00475771 50.4459912,8.9460793 C51.0950171,8.33600277 51.674253,7.6557064 52.1730396,6.91770925 C52.4061674,6.57277533 52.617489,6.21317181 52.8613216,5.82462555 L46.4495154,5.82462555 L46.4491189,5.82502203 Z" id="Shape" fill="#E33443"></path>
                <path d="M72.0761233,9.39330396 L72.0761233,11.0953744 L79.2396476,11.0953744 C79.6055947,11.0953744 79.6055947,11.0953744 79.6059912,11.470837 C79.6059912,11.8205286 79.6020264,12.1702203 79.6059912,12.5199119 C79.6087665,12.6919824 79.5374009,12.772467 79.3649339,12.7625551 C79.3173568,12.7597797 79.2693833,12.7625551 79.2218062,12.7625551 L62.2336123,12.7625551 C61.8585463,12.7625551 61.8585463,12.7625551 61.8581498,12.3985903 C61.8581498,12.0814097 61.8581498,11.7634361 61.8581498,11.4446696 C61.8581498,11.0965639 61.8581498,11.0957709 62.1971366,11.0953744 L69.3876211,11.0953744 L69.3876211,9.39330396 L63.7457709,9.39330396 C63.3913216,9.39330396 63.3913216,9.39330396 63.3913216,9.02933921 C63.3913216,8.73515419 63.3913216,8.44136564 63.3913216,8.14718062 C63.3913216,7.86370044 63.4151101,7.83911894 63.7085022,7.83911894 C65.4265639,7.83911894 67.1446256,7.83911894 68.8626872,7.83911894 L69.3931718,7.83911894 L69.3931718,6.23577093 L62.6927313,6.23577093 C62.3755507,6.23577093 62.3755507,6.23339207 62.3735683,5.91621145 C62.3735683,5.56651982 62.3842731,5.21643172 62.3696035,4.86713656 C62.3600881,4.64193833 62.4314537,4.56185022 62.6657709,4.56422907 C63.6676652,4.5753304 64.6699559,4.56898678 65.6722467,4.56898678 L65.9390749,4.56898678 L65.643304,3.18806167 C66.2439648,3.18806167 66.7986344,3.18370044 67.353304,3.19480176 C67.4088106,3.19480176 67.4722467,3.28162996 67.5154626,3.33872247 C67.8040969,3.70387665 68.0820264,4.07814978 68.3809692,4.4345815 C68.4451982,4.51110132 68.5827753,4.56303965 68.6870485,4.5638326 C70.0630837,4.57229075 71.4391189,4.57229075 72.8151542,4.5638326 C72.9265639,4.5638326 73.0732599,4.50872247 73.1418502,4.42784141 C73.4419824,4.07101322 73.717533,3.69634361 74.0077533,3.33237885 C74.0557269,3.27211454 74.1322467,3.19599119 74.1968722,3.19440529 C74.7360793,3.18330396 75.2760793,3.18806167 75.8711894,3.18806167 L75.5781938,4.56977974 L76.1403965,4.56977974 C77.0550661,4.56977974 77.9697357,4.57572687 78.8844053,4.5654185 C79.1139648,4.56264317 79.1956388,4.63559471 79.1853304,4.86634361 C79.1694714,5.22317181 79.1694714,5.58198238 79.1853304,5.93881057 C79.1956388,6.1707489 79.1127753,6.24092511 78.8832159,6.24013216 C76.7025991,6.23339207 74.5243612,6.2361674 72.3449339,6.2361674 L72.0586784,6.2361674 L72.0586784,7.83872247 L77.8182819,7.83872247 C78.1854185,7.83872247 78.1854185,7.83872247 78.1854185,8.21140969 C78.1854185,8.4976652 78.1854185,8.78378855 78.1854185,9.06977974 C78.1854185,9.38973568 78.1822467,9.39330396 77.8682379,9.39330396 L72.0761233,9.39330396 Z" id="Shape" fill="#E33443"></path>
                <path d="M70.8450661,17.5674449 C70.224185,18.0035683 69.6278855,18.4821145 68.9776652,18.8686784 C67.6367841,19.6655947 66.158326,20.1203524 64.6414097,20.4422907 C63.7295154,20.6357709 62.8053304,20.7788987 61.8660793,20.9481938 L61.8660793,20.0585022 C62.7668722,19.8535242 63.6605286,19.6965198 64.5256388,19.4423789 C65.8118062,19.0645374 66.9837885,18.4511894 67.9194714,17.4643612 C68.1938326,17.174141 68.4035683,16.8220705 68.637489,16.494185 C68.6807048,16.4339207 68.6977533,16.355022 68.7393833,16.2539207 L62.2427313,16.2539207 C62.2427313,15.7270044 62.239163,15.2230837 62.2490749,14.7167841 C62.2490749,14.6723789 62.3327313,14.6109251 62.3890308,14.5914978 C62.4532599,14.5692952 62.5305727,14.5839648 62.6019383,14.5839648 C64.7254626,14.5839648 66.8489868,14.58 68.9721145,14.5895154 C69.1988987,14.5895154 69.2635242,14.5145815 69.25837,14.3064317 C69.2492511,13.9496035 69.2559912,13.5927753 69.2559912,13.2192952 L72.3140088,13.2192952 C72.2771366,13.6685022 72.2410573,14.1077974 72.2022026,14.5839648 L79.0334802,14.5839648 C79.3621586,14.5839648 79.3653304,14.5839648 79.3673128,14.9193833 C79.3700881,15.34837 79.3673128,15.7769604 79.3673128,16.2372687 L72.8409251,16.2372687 C73.0427521,16.5768095 73.3026997,16.8782252 73.6088987,17.1277533 C74.6730396,18.0178414 75.8965639,18.629207 77.162511,19.1672247 C77.9463436,19.5006608 78.7484141,19.7766079 79.5893392,19.9320264 C79.7043172,19.9534361 79.764978,20.0037885 79.7594273,20.1366079 C79.7491189,20.3895595 79.7562555,20.6429075 79.7562555,20.9129075 C78.4054626,20.7543172 77.0915419,20.52 75.8033921,20.1564317 C74.3614097,19.7496476 72.9761233,19.2104405 71.7593392,18.3132159 C71.4259031,18.0693833 71.1186344,17.7922467 70.8450661,17.5674449 Z" id="Shape" fill="#E33443"></path>
                <path d="M83.5081057,20.9370925 L83.5081057,3.84581498 L99.6862996,3.84581498 L99.6862996,18.0507489 C99.6862996,18.0507489 99.6763877,20.7864317 97.7114537,20.7864317 L95.4317181,20.7864317 L95.4317181,19.5700441 C95.4317181,19.5700441 97.3304405,19.8079295 97.3304405,17.8988987 L97.3304405,5.66960352 L85.8623789,5.66960352 L85.8623789,20.8609692 L83.5081057,20.9370925 Z" id="Shape" fill="#2C3B46"></path>
                <path d="M109.129559,6.81145374 C107.920705,10.6497357 105.105727,13.876652 105.105727,13.876652 C105.430044,14.1256388 108.753304,14.0285022 108.753304,14.0285022 L108.753304,15.2437004 C107.258194,15.6619824 103.05674,15.6992511 103.05674,15.6992511 L103.05674,13.9511894 C104.515771,12.3351542 105.56326,10.3829075 105.56326,10.3829075 C105.137841,10.5074009 102.75304,10.3829075 102.75304,10.3829075 L102.75304,8.71057269 C105.066079,5.00907489 105.179868,3.01321586 105.179868,3.01321586 L107.306564,3.08933921 C106.875595,5.70330396 104.648194,8.78590308 104.648194,8.78590308 C104.869031,8.86519824 106.395066,8.63405286 106.395066,8.63405286 C106.761806,7.93625551 107.07859,6.7353304 107.07859,6.7353304 L108.69859,6.7353304" id="Shape" fill="#2C3B46"></path>
                <path d="M102.597621,17.9008811 L102.597621,19.7246696 C102.597621,19.7246696 106.80859,19.709207 109.129559,18.8892952 L109.129559,17.4449339 C109.129559,17.4449339 105.323392,18.0864317 102.597621,17.9008811 Z" id="Shape" fill="#2C3B46"></path>
                <path d="M88.8105727,10.4162115 C88.4656388,9.3060793 88.0651982,6.63660793 88.0651982,6.63660793 L86.4340969,6.63660793 L86.4340969,6.73374449 C86.5133921,9.05828194 87.6631718,12.239207 87.9914537,13.156652 C88.4232159,12.092511 88.6793392,10.996652 88.8105727,10.4162115 Z" id="Shape" fill="#2C3B46"></path>
                <path d="M91.4832159,6.75555066 L89.8120705,6.75555066 C89.7264317,8.14321586 89.3505727,9.63555066 89.133304,10.3571366 C88.9096916,11.2944053 88.4696035,13.0349339 87.8855947,14.2108811 C87.4240969,15.6064758 86.5133921,16.9112775 86.5133921,16.9112775 L86.5133921,18.4301762 C86.9495154,18.1546256 88.9913656,15.0121586 88.9913656,15.0121586 C89.7101762,16.453348 91.4693392,18.3540529 91.4693392,18.3540529 L91.4693392,16.8355507 C90.9539207,16.3042731 89.804141,13.4286344 89.804141,13.4286344 C90.7081057,11.9287665 91.4832159,6.75555066 91.4832159,6.75555066 Z" id="Shape" fill="#2C3B46"></path>
                <path d="M94.1273128,10.4162115 C93.7823789,9.3060793 93.3819383,6.63660793 93.3819383,6.63660793 L91.7468722,6.63660793 L91.7468722,6.73374449 C91.9054626,9.05828194 92.9759471,12.239207 93.3062115,13.156652 C93.7379736,12.092511 93.9964758,10.9970485 94.1273128,10.4162115 Z" id="Shape" fill="#2C3B46"></path>
                <path d="M96.7999559,6.75555066 L95.1288106,6.75555066 C95.0431718,8.14321586 94.6673128,9.63555066 94.4500441,10.3571366 C94.2264317,11.2944053 93.7839648,13.0349339 93.2003524,14.2108811 C92.7388546,15.6064758 91.8261674,16.9112775 91.8261674,16.9112775 L91.8261674,18.4301762 C92.2622907,18.1546256 94.304141,15.0121586 94.304141,15.0121586 C95.0229515,16.453348 96.7821145,18.3540529 96.7821145,18.3540529 L96.7821145,16.8355507 C96.2270485,16.3042731 95.1200881,13.4286344 95.1200881,13.4286344 C96.0228634,11.9287665 96.7999559,6.75555066 96.7999559,6.75555066 Z" id="Shape" fill="#2C3B46"></path>
                <path d="M116.708987,10.1850661 C116.708987,10.1850661 118.478855,8.73277533 119.779295,6.18066079 L119.739648,6.00660793 L118.050264,4.56343612 C117.959913,4.48957518 117.847005,4.44886103 117.730308,4.44806167 L113.818282,4.40088106 C113.818282,4.40088106 114.082731,3.97982379 114.237357,3.18687225 L111.67533,3.18687225 C111.67533,3.18687225 111.333172,6.57198238 109.152555,7.99334802 L109.152555,8.83268722 C109.152555,8.83268722 110.208767,8.47903084 110.833216,8.03973568 C110.833216,8.03973568 112.157048,9.61731278 112.974185,10.1846696 C112.974185,10.1846696 111.015991,11.9192511 109.152555,12.4227753 L109.152555,13.2157269 C109.152555,13.2157269 112.489295,12.6114978 114.748811,11.3970925 C114.748811,11.3970925 118.667974,13.164185 120.53141,13.1689427 L120.53141,12.4699559 C120.53141,12.4699559 118.422555,11.9002203 116.708987,10.1850661 Z M114.70837,8.91634361 C113.740969,8.23837004 112.844934,6.95378855 112.844934,6.95378855 L112.192731,6.95378855 L112.938106,6.12118943 L116.897709,6.12118943 L117.037269,6.21317181 C115.539383,8.66814978 114.707974,8.91634361 114.707974,8.91634361 L114.70837,8.91634361 Z" id="Shape" fill="#2C3B46"></path>
                <path d="M110.087841,13.4492511 C110.087841,13.4492511 109.945507,13.4369604 109.945507,13.6355947 L109.945507,20.4434802 C109.945507,20.4434802 109.995859,20.6163436 110.135022,20.6298238 C110.274185,20.643304 117.311233,20.6298238 117.311233,20.6298238 C117.311233,20.6298238 119.501762,20.7202203 119.501762,18.2509692 L119.501762,13.4008811 L110.087841,13.4492511 Z M117.240661,17.8735242 C117.240661,17.8735242 117.184361,19.0062555 116.245507,19.0062555 L112.472247,19.0062555 C112.472247,19.0062555 112.284714,19.0272687 112.284714,18.7592511 L112.284714,15.2155507 C112.284714,15.2155507 112.277974,15.0414978 112.425463,15.0414978 L117.037269,15.0414978 C117.037269,15.0414978 117.240264,15.0331718 117.240264,15.2619383 L117.240264,17.8731278 L117.240661,17.8735242 Z" id="Shape" fill="#2C3B46"></path>
                <path d="M41.8024229,26.6491189 C41.645788,26.8727914 41.4658356,27.0791917 41.2655947,27.2648458 C41.1315859,27.1145815 41.0919383,27.0753304 40.9182819,26.9726432 C41.4471806,26.5365198 41.7552423,26.0885022 41.9130396,25.5056828 L42.3868282,25.6396916 C42.3611265,25.6793459 42.3399796,25.7217727 42.3237885,25.7661674 C42.2444934,25.9160352 42.1818502,26.0504405 42.079163,26.2320264 L43.5857709,26.2320264 C43.8314186,26.2363041 44.0770024,26.2203916 44.3200441,26.1844493 L44.3200441,26.6895595 C44.0818841,26.6585805 43.8417526,26.6453282 43.60163,26.6499119 L43.0727313,26.6499119 C43.0489427,27.13163 43.0410132,27.155022 42.9934361,27.4472247 L43.7986784,27.4472247 C44.0364069,27.4507336 44.2740249,27.4348217 44.509163,27.3996476 L44.509163,27.9047577 C44.2766265,27.8701417 44.0416883,27.8542317 43.8066079,27.8571806 L42.8828194,27.8571806 L42.8431718,27.9761233 C43.3615401,28.23084 43.8645983,28.5155974 44.3497797,28.8289427 L44.0722467,29.2472247 C43.6143172,28.8681938 43.3300441,28.6786784 42.6905286,28.3234361 C42.3590749,28.939163 41.8614978,29.389163 41.0875771,29.7681938 C41.0007489,29.618326 40.9289868,29.5303084 40.7561233,29.389163 C41.6168722,29.0418502 42.1378414,28.5680617 42.4213216,27.8575771 L41.5506608,27.8575771 C41.2997616,27.8539727 41.0489619,27.8698797 40.8005286,27.9051542 L40.8005286,27.3992511 C41.0408705,27.435544 41.2838497,27.4514597 41.5268722,27.4468282 L42.5454185,27.4468282 C42.6005286,27.1625551 42.6084581,27.0995154 42.6247137,26.6495154 L41.8036123,26.6495154 L41.8024229,26.6491189 Z M41.9368282,32.7286784 C41.9736086,32.4619131 41.9893839,32.1926714 41.9840088,31.9234361 L41.9840088,30.273304 C41.9894653,29.9835131 41.9788764,29.6936424 41.9522907,29.405022 C42.2358401,29.4300813 42.5204827,29.4406678 42.8051101,29.4367401 L45.8211013,29.4367401 C46.1057267,29.4404958 46.3903606,29.4299097 46.6739207,29.405022 C46.6501322,29.6496476 46.6422026,29.8153744 46.6422026,30.273304 L46.6422026,31.9234361 C46.6422026,32.3199119 46.6580617,32.523304 46.6897797,32.7286784 L46.1608811,32.7286784 L46.1608811,32.3496476 L42.4657269,32.3496476 L42.4657269,32.7286784 L41.9368282,32.7286784 Z M42.4657269,30.6523348 L46.1608811,30.6523348 L46.1608811,29.8704846 L42.4657269,29.8704846 L42.4657269,30.6519383 L42.4657269,30.6523348 Z M42.4657269,31.9155066 L46.1608811,31.9155066 L46.1608811,31.0706167 L42.4657269,31.0706167 L42.4657269,31.9162996 L42.4657269,31.9155066 Z M45.3790308,28.8915859 C45.160119,28.8881203 44.9412105,28.8987148 44.7236564,28.923304 C44.7468686,28.729527 44.7574636,28.5344463 44.7553744,28.3392952 L44.7553744,26.7597357 C44.7575899,26.5434838 44.7469987,26.3272905 44.7236564,26.1122907 C44.9411753,26.137314 45.1601121,26.1479099 45.3790308,26.1440088 L46.766696,26.1440088 C46.9856181,26.1481325 47.2045698,26.1375359 47.4220705,26.1122907 C47.3978505,26.3245664 47.3872561,26.5381757 47.3903524,26.7518062 L47.3903524,28.30837 C47.3871834,28.51409 47.3977798,28.7197915 47.4220705,28.9240969 C47.2098291,28.8994606 46.9961926,28.8888649 46.7825551,28.8923789 L45.3770485,28.8923789 L45.3790308,28.8915859 Z M45.229163,28.473304 L46.9110132,28.473304 L46.9110132,26.5702203 L45.229163,26.5702203 L45.229163,28.473304 Z" id="Shape" fill="#919395" fill-rule="nonzero"></path>
                <path d="M55.1212335,32.1918502 C55.6342731,31.7339207 55.8634361,31.4179295 56.1239207,30.8180617 L56.5425991,31.0559471 C56.2345374,31.7351101 56.0137004,32.0507048 55.5399119,32.5229075 L55.1212335,32.1918502 Z M57.7819824,26.0809692 C58.0821145,26.0809692 58.2399119,26.0730396 58.4294273,26.0413216 L58.4294273,26.4845815 C58.2399119,26.4528634 58.0979736,26.4449339 57.7819824,26.4449339 L57.2055066,26.4449339 L57.2055066,26.8636123 L57.64163,26.8636123 C57.9496916,26.8636123 58.0678414,26.8556828 58.2652863,26.8239648 L58.2652863,27.2422467 C58.0558026,27.2164044 57.8447192,27.2058039 57.6337004,27.2105286 L57.207489,27.2105286 L57.207489,27.6843172 L57.7665198,27.6843172 C58.0979736,27.6843172 58.2482379,27.6763877 58.4218943,27.6446696 L58.4218943,28.0863436 C58.2049772,28.0543593 57.9857107,28.0410945 57.7665198,28.046696 L57.2059031,28.046696 C57.2217621,28.2845815 57.2217621,28.2845815 57.2455507,28.4035242 L56.7396476,28.4035242 C56.7555066,28.2845815 56.7634361,28.1826872 56.7713656,28.046696 L55.8237885,28.046696 C55.5002643,28.046696 55.3579295,28.0546256 55.1604846,28.0863436 L55.1604846,27.6502203 C55.3805635,27.6763945 55.6022162,27.6869935 55.8237885,27.6819383 L56.7713656,27.6819383 L56.7713656,27.2097357 L56.0220264,27.2097357 C55.7139648,27.2097357 55.5799559,27.2176652 55.3904405,27.2493833 L55.3904405,26.8231718 C55.5799559,26.8544934 55.7076211,26.8628194 56.0220264,26.8628194 L56.7721586,26.8628194 L56.7721586,26.4449339 L55.9030837,26.4449339 C55.5859031,26.4449339 55.4451542,26.4528634 55.2477093,26.4845815 L55.2477093,26.0413216 C55.4646263,26.0733059 55.6838928,26.0865707 55.9030837,26.0809692 L56.7717621,26.0809692 C56.7758761,25.9143144 56.7625883,25.7476852 56.7321145,25.5837885 L57.2451542,25.5837885 C57.2201895,25.7483684 57.2069403,25.9145129 57.2055066,26.0809692 L57.7819824,26.0809692 Z M56.5263436,29.7356828 C56.3126919,29.7312557 56.0989933,29.7418546 55.8868282,29.7674009 L55.8868282,29.3415859 C56.0604846,29.373304 56.1948899,29.3812335 56.5263436,29.3812335 L60.9081938,29.3812335 L60.9081938,28.9451101 L56.3130396,28.9451101 C56.1043763,28.9390613 55.8956008,28.9523337 55.6893833,28.9847577 L55.6893833,28.5442731 C55.8709692,28.5759912 56.0129075,28.5839207 56.3288987,28.5839207 L60.8055066,28.5839207 C61.0057502,28.5872284 61.2060216,28.5792863 61.4053744,28.5601322 C61.3874434,28.7490968 61.3795028,28.9388764 61.3815859,29.1286784 L61.3815859,29.9969604 C61.3792209,30.1946845 61.3871612,30.3923975 61.4053744,30.5892952 C61.1980236,30.5708472 60.9898718,30.5629075 60.7817181,30.5655066 L56.265859,30.5655066 C55.9577974,30.5655066 55.815859,30.5734361 55.6342731,30.6051542 L55.6342731,30.1626872 C55.815859,30.1944053 55.9577974,30.2023348 56.2579295,30.2023348 L60.9081938,30.2023348 L60.9081938,29.7356828 L56.5263436,29.7356828 Z M57.6947577,30.8172687 C57.6634285,30.9944111 57.6501447,31.174274 57.6551101,31.3540969 L57.6551101,31.9559471 C57.6551101,32.1454626 57.836696,32.1771806 58.7842731,32.1771806 C59.7159912,32.1771806 59.9844053,32.137533 60.079163,31.9789427 C60.1422026,31.8762555 60.1739207,31.6617621 60.1897797,31.2922467 C60.4185463,31.4111894 60.4581938,31.4262555 60.6948899,31.4817621 C60.6318502,32.0423789 60.5446256,32.3187225 60.3777093,32.4448018 C60.1881938,32.5871366 59.809163,32.6184581 58.4512335,32.6184581 C57.7566079,32.6184581 57.4485463,32.5788106 57.2828194,32.4527313 C57.1959912,32.3896916 57.1638767,32.2870044 57.1638767,32.0895595 L57.1638767,31.3945374 C57.1638767,31.1419824 57.1559471,31.0075771 57.1162996,30.8180617 L57.6927753,30.8180617 L57.6947577,30.8172687 Z M59.1617181,31.8040969 C58.8223348,31.4076211 58.6169604,31.2196916 58.1986784,30.9512775 L58.5380617,30.690793 C58.9801322,30.968326 59.2092952,31.156652 59.5328194,31.5118943 L59.1617181,31.8040969 Z M61.3744493,26.0809692 C61.682511,26.0809692 61.8323789,26.0730396 62.0298238,26.0413216 L62.0298238,26.4845815 C61.8156033,26.4522705 61.5989412,26.4390027 61.3823789,26.4449339 L60.4665198,26.4449339 L60.4665198,26.8810573 L61.232511,26.8810573 C61.5401762,26.8810573 61.6745815,26.8731278 61.8561674,26.8414097 L61.8561674,27.2676211 C61.6579295,27.2359031 61.5326432,27.2279736 61.2245815,27.2279736 L60.4665198,27.2279736 L60.4665198,27.6859031 L61.4295595,27.6859031 C61.7689427,27.6859031 61.919207,27.6779736 62.0928634,27.6462555 L62.0928634,28.0863436 C61.8732814,28.0543912 61.6513842,28.0411278 61.4295595,28.046696 L60.4665198,28.046696 C60.4744493,28.1727753 60.4823789,28.2754626 60.4982379,28.4035242 L60.0006608,28.4035242 C60.0176999,28.2852451 60.0282882,28.1661262 60.0323789,28.046696 L59.3127753,28.046696 C58.9892511,28.046696 58.8469163,28.0546256 58.6494714,28.0863436 L58.6494714,27.6502203 C58.8695504,27.6763932 59.091203,27.6869922 59.3127753,27.6819383 L60.0311894,27.6819383 L60.0311894,27.2255947 L59.4713656,27.2255947 C59.2603504,27.2211171 59.0492847,27.2317168 58.8397797,27.2573128 L58.8397797,26.8386344 C59.0134361,26.8699559 59.1478414,26.8782819 59.4713656,26.8782819 L60.0319824,26.8782819 L60.0319824,26.4449339 L59.3607489,26.4449339 C59.0435683,26.4449339 58.9028194,26.4528634 58.713304,26.4845815 L58.713304,26.0413216 C58.9302212,26.073304 59.1494876,26.0865687 59.3686784,26.0809692 L60.0319824,26.0809692 C60.0331448,25.9144085 60.0198794,25.74806 59.9923348,25.5837885 L60.5053744,25.5837885 C60.4788403,25.7481832 60.4655817,25.914447 60.4657269,26.0809692 L61.3744493,26.0809692 Z M61.7931278,32.4999119 C61.4362996,31.868326 61.2087225,31.5523348 60.7587225,31.0789427 L61.1551982,30.8501762 C61.5571986,31.2661221 61.9168526,31.721002 62.2288546,32.2081057 L61.7931278,32.4999119 Z" id="Shape" fill="#919395" fill-rule="nonzero"></path>
                <path d="M70.6032159,29.0493833 L70.0425991,29.0493833 C69.849605,29.0436469 69.656515,29.0569268 69.4661233,29.0890308 L69.4661233,28.5755947 C69.6318502,28.6073128 69.7662555,28.6152423 70.0739207,28.6152423 L70.5330396,28.6152423 C70.731152,28.6202669 70.9293053,28.6069947 71.124978,28.5755947 C71.1001008,28.8406036 71.0895127,29.1067599 71.0932599,29.3729075 L71.0932599,31.180837 C71.1487665,31.2284141 71.1800881,31.2601322 71.2518502,31.3307048 C71.6372247,31.7180617 71.7621145,31.7973568 72.1189427,31.8837885 C72.4270044,31.9630837 73.0899119,32.0027313 73.9823789,32.0027313 C75.150793,32.0027313 76.0274009,31.9630837 76.7220264,31.876652 C76.6193392,32.0820264 76.5880176,32.1843172 76.532511,32.4451982 C75.7903084,32.4769163 74.8982379,32.4927753 73.8717621,32.4927753 C72.8218943,32.4927753 72.1585903,32.4218062 71.7954185,32.2719383 C71.6213455,32.1972544 71.4569374,32.1018045 71.3057709,31.9876652 C71.2899119,31.9638767 71.1951542,31.8687225 71.0282379,31.6954626 C70.9489427,31.6086344 70.862511,31.5614537 70.7903524,31.5614537 C70.6087665,31.5614537 70.1191189,32.0035242 69.7325551,32.5090308 L69.3535242,32.1125551 C69.9454626,31.5281498 70.3244934,31.2204846 70.600837,31.1257269 L70.600837,29.0493833 L70.6032159,29.0493833 Z M70.0505286,25.7709251 C70.5794273,26.2760352 70.8165198,26.5369163 71.2978414,27.1447137 L70.887489,27.5078855 C70.42163,26.836652 70.2400441,26.615815 69.6794273,26.0944493 L70.0505286,25.7709251 Z M72.2925991,28.1632599 C71.9690749,28.1632599 71.7319824,28.1870485 71.542467,28.2342291 L71.542467,27.6125551 C71.7161233,27.6601322 71.9785903,27.6835242 72.2925991,27.6835242 L75.7982379,27.6835242 C76.1062996,27.6835242 76.3667841,27.6597357 76.54837,27.6125551 L76.54837,28.2362115 C76.3747137,28.1886344 76.1122467,28.1652423 75.7982379,28.1652423 L73.7060352,28.1573128 C73.4285022,28.923304 73.3979736,29.0180617 73.1612775,29.5390308 C72.8611454,30.2181938 72.8377533,30.2653744 72.6403084,30.5968282 C73.5323789,30.525859 74.7087225,30.3522026 75.3407048,30.2003524 C75.1821145,29.8609692 74.9442291,29.4740088 74.6064317,28.9530396 L75.0326432,28.7242731 C75.7669163,29.8768282 76.0432599,30.3498238 76.4599559,31.2430837 L76.0044053,31.4968282 C75.8545374,31.1177974 75.7122026,30.8101322 75.5940529,30.6285463 C74.9069604,30.7871366 74.299163,30.8811013 72.8464758,31.0472247 C72.4202643,31.0948018 72.3017181,31.1102643 71.8988987,31.173304 L71.7724229,30.6523348 C72.1292511,30.5655066 72.2303524,30.4540969 72.506696,29.855022 C72.7639426,29.3058004 72.9803442,28.7383591 73.154141,28.1573128 L72.2925991,28.1632599 Z M75.9088546,26.5051982 C75.6656572,26.4699492 75.4203159,26.4515353 75.1745815,26.4500881 L72.8611454,26.4500881 C72.6100655,26.4494069 72.3592977,26.4678302 72.1110132,26.5051982 L72.1110132,25.9227753 C72.2767401,25.9624229 72.5213656,25.9782819 72.8611454,25.9782819 L75.1745815,25.9782819 C75.5060352,25.9782819 75.7510573,25.9624229 75.9088546,25.9227753 L75.9088546,26.5071806 L75.9088546,26.5051982 Z" id="Shape" fill="#919395" fill-rule="nonzero"></path>
                <path d="M89.9603524,26.2546256 C90.2584304,26.2583258 90.5564294,26.2424326 90.8524229,26.2070485 L90.8524229,26.7359471 C90.6145374,26.7042291 90.4103524,26.6962996 89.9762115,26.6962996 L88.7312775,26.6962996 L88.7312775,26.7514097 C88.727441,26.9231416 88.7380511,27.0948919 88.7629956,27.2648458 L88.2261674,27.2648458 C88.2427181,27.0969925 88.250658,26.9284015 88.2499559,26.7597357 L88.2499559,26.696696 L86.3524229,26.696696 L86.3524229,26.7518062 C86.3515454,26.9257529 86.3594851,27.0996324 86.3762115,27.2727753 L85.8393833,27.2727753 C85.8632252,27.1028415 85.8738297,26.9313122 85.8711013,26.7597357 L85.8711013,26.696696 L84.7340088,26.696696 C84.2978855,26.696696 84.1024229,26.7046256 83.8577974,26.7363436 L83.8577974,26.2070485 C84.1537913,26.242428 84.4517899,26.2583213 84.7498678,26.2546256 L85.8711013,26.2546256 L85.8711013,26.0960352 C85.8741082,25.9264186 85.8581502,25.7569971 85.8235242,25.5909251 L86.4,25.5909251 C86.3642846,25.7595124 86.348318,25.9316847 86.3524229,26.1039648 L86.3524229,26.2542291 L88.2471806,26.2542291 L88.2471806,26.1039648 C88.2493055,25.9317774 88.2334933,25.7598369 88.2,25.5909251 L88.7764758,25.5909251 C88.7438442,25.7599662 88.7279085,25.9318057 88.7288987,26.1039648 L88.7288987,26.2542291 L89.9603524,26.2542291 L89.9603524,26.2546256 Z M83.9993392,28.9784141 C84.0221348,28.7924343 84.0327301,28.6051615 84.0310573,28.4177974 L84.0310573,28.1101322 C84.0341297,27.8965021 84.0235354,27.6828943 83.9993392,27.4706167 C84.2598238,27.4944053 84.4810573,27.5023348 84.7653304,27.5023348 L89.9682819,27.5023348 C90.2525551,27.5023348 90.4733921,27.4944053 90.7342731,27.4706167 C90.7087268,27.6827818 90.698128,27.8964805 90.7025551,28.1101322 L90.7025551,28.4177974 C90.6981716,28.6052162 90.708778,28.7926856 90.7342731,28.9784141 L90.213304,28.9784141 L90.213304,27.9598678 L84.5218943,27.9598678 L84.5218943,28.9784141 L84.0009251,28.9784141 L83.9993392,28.9784141 Z M84.6079295,31.2997797 C84.6115964,31.0572529 84.6010055,30.8147201 84.5762115,30.5734361 C84.7815859,30.6051542 84.9473128,30.6130837 85.3263436,30.6130837 L89.4251101,30.6130837 C89.8120705,30.6130837 89.9619383,30.6051542 90.1831718,30.5734361 C90.1574013,30.8146477 90.1468078,31.0572399 90.1514537,31.2997797 L90.1514537,31.8921145 C90.1514537,32.3282379 90.1593833,32.4761233 90.1911013,32.6814978 L89.6622026,32.6814978 L89.6622026,32.3813656 L85.0987665,32.3813656 L85.0987665,32.6814978 L84.5682819,32.6814978 C84.6,32.4681938 84.6079295,32.285022 84.6079295,31.884185 L84.6079295,31.2997797 Z M85.09837,31.9162996 L89.6618062,31.9162996 L89.6618062,31.0626872 L85.09837,31.0626872 L85.09837,31.9162996 Z M89.574978,29.5239648 C89.574978,29.7923789 89.5829075,29.9204405 89.5987665,30.1321586 C89.4005286,30.1004405 89.2197357,30.092511 88.9120705,30.092511 L85.8409692,30.092511 C85.6113737,30.0870635 85.381716,30.1003232 85.1542731,30.1321586 C85.1701322,29.9188546 85.1780617,29.7689868 85.1780617,29.5239648 L85.1780617,29.0414537 C85.1780617,28.8281498 85.1701322,28.694141 85.1542731,28.480837 C85.335859,28.5125551 85.4714537,28.5204846 85.785859,28.5204846 L88.9596476,28.5204846 C89.2677093,28.5204846 89.4017181,28.5125551 89.599163,28.480837 C89.583304,28.6703524 89.5753744,28.8043612 89.5753744,29.0573128 L89.5753744,29.5231718 L89.574978,29.5239648 Z M85.6498678,29.6579736 L89.099207,29.6579736 L89.099207,28.9546256 L85.6498678,28.9546256 L85.6498678,29.6563877 L85.6498678,29.6579736 Z" id="Shape" fill="#919395" fill-rule="nonzero"></path>
                <path d="M100.532775,30.5496476 C99.9880176,31.3469604 99.4591189,31.8837885 98.6614097,32.4285463 C98.5602536,32.2659321 98.432067,32.1217893 98.2823789,32.0023348 C99.0404405,31.5662115 99.6561674,30.9917181 100.106167,30.2812335 L100.532775,30.5496476 Z M104.471366,25.9862115 C104.329427,26.01 104.329427,26.01 103.942467,26.1051542 C103.413568,26.23163 102.213436,26.4286784 101.63696,26.484185 C100.839648,27.3449339 100.823789,27.3603965 100.057797,27.9844493 C100.35,27.9765198 100.586696,27.9606608 100.729031,27.9527313 C101.037093,27.9448018 101.447445,27.9130837 101.968414,27.8817621 C102.002322,27.8613765 102.034071,27.837598 102.063172,27.810793 C102.401289,27.5492776 102.722916,27.2671094 103.026211,26.9659031 L103.452423,27.2660352 C102.77326,27.8345815 102.457665,28.0712775 101.936696,28.4185903 C101.146916,28.947489 100.704846,29.2000441 99.907533,29.5711454 C100.484009,29.5314978 100.484009,29.5314978 101.612379,29.4684581 C102.346652,29.4367401 102.346652,29.4367401 103.957137,29.2702203 C103.767621,29.0414537 103.649075,28.9070485 103.254581,28.5121586 L103.633612,28.2596035 C104.312775,28.9462996 104.57326,29.2464317 105.196916,30.0754626 L104.786564,30.3926432 C104.588326,30.1004405 104.588326,30.1004405 104.273128,29.6662996 C103.894097,29.7138767 102.796652,29.7927753 102.062379,29.8248899 L102.062379,32.0514978 C102.062379,32.3290308 102.014802,32.4701762 101.896652,32.5566079 C101.770573,32.6434361 101.525551,32.6989427 101.241278,32.6989427 C101.114802,32.6989427 100.996652,32.6910132 100.664802,32.6672247 C100.651393,32.4959474 100.619625,32.326606 100.570044,32.1621145 C100.760286,32.1968467 100.953144,32.2152836 101.14652,32.2172247 C101.320176,32.2172247 101.446652,32.2013656 101.493833,32.1775771 C101.525551,32.1537885 101.548943,32.0511013 101.548943,31.9396916 L101.548943,29.8546256 L100.901498,29.8859471 C99.7648018,29.9335242 99.0697797,29.9807048 98.7462555,30.0124229 L98.6752863,29.5624229 C99.0902021,29.4903254 99.492031,29.3566942 99.867489,29.1659471 C100.167621,29.0160793 101.051762,28.5185022 101.367753,28.3131278 C101.202026,28.3289868 101.178238,28.3289868 100.980793,28.3448458 C100.799207,28.3607048 100.554581,28.3765639 100.23859,28.3924229 C99.7017621,28.4162115 99.5752863,28.424141 99.2438326,28.4792511 L99.1431278,28.030837 C99.4115419,27.9677974 99.5538767,27.8885022 99.8694714,27.6200881 C100.263327,27.2893139 100.632748,26.9304927 100.974846,26.5464317 C99.8302203,26.6431718 99.8302203,26.6431718 98.8810573,26.6828194 C98.8410713,26.5164798 98.7715067,26.3586837 98.6756828,26.2169604 L98.730793,26.2169604 C100.041542,26.2169604 101.612775,26.0829515 102.774846,25.8775771 C103.446079,25.7586344 103.643128,25.7039207 104.108987,25.5207489 L104.471366,25.9862115 Z M104.709251,32.3813656 C104.312775,31.9055947 104.188282,31.7656388 103.856432,31.4655066 C103.420308,31.0690308 103.240705,30.9207489 102.837885,30.6285463 L103.185198,30.289163 C103.413965,30.4707489 103.413965,30.4707489 103.974978,30.9207489 C104.388001,31.2474249 104.766853,31.6151186 105.105727,32.0181938 L104.709251,32.3813656 Z" id="Shape" fill="#919395" fill-rule="nonzero"></path>
                <path d="M115.209515,31.5761233 C114.499617,31.7994498 113.777343,31.9813422 113.046344,32.1208811 C112.923817,32.143289 112.802584,32.1722736 112.683172,32.2077093 L112.564229,31.6470925 L112.619736,31.6470925 C112.753744,31.6470925 113.093524,31.5995154 113.417048,31.5444053 C114.031331,31.4348004 114.635892,31.2763684 115.224978,31.0706167 L115.209515,31.5761233 Z M112.612203,30.0132159 C112.662843,30.0027377 112.712873,29.9895021 112.76207,29.9735683 C112.888546,29.9339207 113.014626,29.7999119 113.354405,29.3340529 C113.844053,28.6548899 113.844053,28.6548899 114.00185,28.4023348 C113.970769,28.4092557 113.938892,28.4119233 113.907093,28.4102643 C113.393656,28.4419824 112.928194,28.5129515 112.71489,28.5918502 L112.588811,28.0867401 C112.787048,28.055022 112.866344,27.9602643 113.173216,27.3445374 C113.446096,26.7728205 113.683377,26.184783 113.8837,25.5837885 L114.397137,25.789163 C114.185022,26.246696 114.185022,26.246696 114.12793,26.3727753 C113.843656,26.9964317 113.543524,27.5887665 113.259648,28.0546256 C113.418238,28.046696 113.749295,28.0229075 114.262335,27.9836564 C114.483568,27.6125551 114.522819,27.5415859 114.720264,27.1784141 L115.178194,27.4388987 C114.645936,28.3192204 114.052261,29.1609116 113.401586,29.9577093 C114.325374,29.7919824 114.648899,29.7289427 115.154405,29.6103965 L115.099295,30.1000441 C114.90978,30.1396916 114.90978,30.1396916 114.609648,30.1868722 C114.198899,30.2578414 114.198899,30.2578414 113.72511,30.3454626 C113.606167,30.3613216 113.606167,30.3613216 113.322687,30.4164317 C113.136765,30.4453776 112.954249,30.4930655 112.77793,30.5587665 L112.612203,30.0132159 Z M116.804537,29.3106608 C116.780749,29.413348 116.780749,29.413348 116.76489,29.7685903 C116.725242,30.6134802 116.622555,31.0555507 116.354537,31.5372687 C116.08652,32.0189868 115.746344,32.3345815 115.067577,32.7374009 C114.917709,32.5086344 114.869339,32.4531278 114.710749,32.3191189 C115.326476,32.0019383 115.666256,31.7267841 115.910881,31.3322907 C116.148767,30.9453304 116.281982,30.3771806 116.281982,29.7689868 C116.284144,29.6154007 116.270861,29.4619863 116.242335,29.3110573 L116.802952,29.3110573 L116.804537,29.3106608 Z M115.367709,28.513348 C115.565947,28.4895595 115.636123,28.4503084 115.80978,28.260793 C116.19674,27.7473568 116.370396,27.4710132 116.615022,26.9976211 L115.943789,26.9976211 C115.620264,26.9976211 115.41489,27.0055507 115.233304,27.0372687 L115.233304,26.5151101 C115.476868,26.5512362 115.722962,26.5675452 115.969163,26.5638767 L117.137577,26.5638767 C116.837445,26.0662996 116.805727,26.0191189 116.624141,25.7899559 L117.050352,25.5520705 C117.327885,25.9311013 117.358414,25.9782819 117.689868,26.5626872 L118.89,26.5626872 C119.135633,26.5663747 119.38117,26.5504653 119.624273,26.5151101 L119.624273,27.0360793 C119.388325,27.0101558 119.151156,26.9969209 118.913789,26.9964317 L117.15859,26.9964317 C116.71652,27.7544934 116.519075,28.0542291 116.140044,28.5359471 C116.368811,28.5121586 116.842599,28.4729075 117.553084,28.4170044 C117.884934,28.3932159 117.884934,28.3932159 118.650529,28.2980617 C118.397974,27.99 118.287357,27.8793833 117.979295,27.5717181 L118.342467,27.3112335 C118.851099,27.8033265 119.308709,28.3455515 119.708326,28.9296476 L119.321366,29.2468282 C119.13978,28.9625551 119.07674,28.8598678 118.950264,28.6862115 C117.994758,28.8126872 117.260485,28.8844493 116.54207,28.930837 C116.04489,28.9625551 116.005242,28.9625551 115.744758,28.9938767 C115.59489,29.0097357 115.59489,29.0097357 115.476344,29.0176652 L115.367709,28.513348 Z M118.202115,29.3106608 C118.173965,29.5359291 118.16072,29.7628103 118.162467,29.9898238 L118.162467,31.8845815 C118.162467,32.0828194 118.210044,32.113348 118.50978,32.113348 C118.906256,32.113348 119.046608,32.0737004 119.094185,31.9396916 C119.165154,31.7501762 119.213128,31.2922467 119.213128,30.6134802 C119.359183,30.7142663 119.523058,30.7863823 119.696035,30.8259912 C119.656388,31.6629515 119.577093,32.1367401 119.427621,32.3262555 C119.301145,32.4999119 119.070793,32.564141 118.535551,32.564141 C117.825066,32.564141 117.675198,32.4693833 117.675198,32.0431718 L117.675198,29.9969604 C117.677463,29.76743 117.664217,29.5380088 117.635551,29.3102643 L118.204097,29.3102643 L118.202115,29.3106608 Z" id="Shape" fill="#919395" fill-rule="nonzero"></path>
                <circle id="Oval" fill="#E33443" fill-rule="nonzero" cx="17.9817621" cy="17.9817621" r="17.9817621"></circle>
                <g id="形状_1" transform="translate(10.030837, 4.480176)" fill="#FFFFFF">
                    <path d="M11.9101322,15.1057269 C11.9101322,15.1057269 9.82665198,15.1826432 9.14788546,16.2277533 C9.14788546,16.2277533 11.1520705,15.8257269 12.8973568,16.2705727 C12.8973568,16.2705727 14.3777974,16.7772687 15.5474009,14.3000881 C15.5069604,14.3785903 15.0137445,15.193348 11.9101322,15.1057269 Z M15.5474009,14.3087445 L15.5544009,14.2937445 L15.5474009,14.3087445 Z M3.28162996,12.5448899 C2.99851579,12.9968352 2.74796929,13.468382 2.53189427,13.9559471 C2.30999416,14.4729781 2.13742172,15.0098111 2.01647577,15.5592952 C1.88297499,16.1655931 1.8149202,16.7844663 1.81348018,17.4052863 C1.81348018,17.5638767 1.81070485,17.7276211 1.81665198,17.8881938 C1.89594714,20.0188546 2.65480176,21.5754185 3.76612335,22.8001322 C1.52722467,19.0375771 3.14603524,15.3214097 5.27590308,12.534978 C6.50140969,10.9312335 8.13052863,9.43770925 8.79740088,7.81136564 C9.53563877,6.0054185 9.01268722,3.55757709 8.09762115,1.94867841 C8.1277533,2.57709251 8.15511013,3.2154185 8.14004405,3.84581498 C8.12488002,4.36000998 8.04915937,4.87062533 7.91444934,5.36709251 C7.87612335,5.51088106 7.83488987,5.65374449 7.7907489,5.79568282 C7.74396476,5.94079295 7.69361233,6.08471366 7.6369163,6.22625551 C7.45176211,6.69171806 7.20753304,7.13814978 6.95577093,7.57070485 C6.70400881,8.00325991 6.40070485,8.41242291 6.09859031,8.81722467 C5.79132159,9.23035242 5.47295154,9.63237885 5.14704846,10.030837 C4.82114537,10.4292952 4.49722467,10.8428194 4.18123348,11.2571366 C3.86524229,11.6714537 3.55678414,12.0972687 3.28162996,12.5448899 Z M14.5205286,17.7621145 C13.4218943,16.6872687 10.4879736,15.9748018 8.92268722,17.2585903 C10.874141,17.0686784 12.4786784,17.8057269 12.6337004,19.5890749 C12.8022026,21.5337885 11.3193833,22.8318502 9.4254185,22.6744493 C6.87806167,22.4635242 5.62757709,19.9213216 6.5961674,17.3220264 C8.17096916,13.0944053 14.6299559,11.544978 15.0870925,6.17511013 C15.3297357,3.30660793 14.0273128,1.54070485 12.51,0.00396475771 L12.4929515,0.00396475771 C12.5750925,0.142952225 12.6488368,0.286733787 12.7137885,0.434537445 C12.9120264,0.87660793 13.0567401,1.14819383 13.2363436,1.60414097 C13.2882819,1.73973568 13.336652,1.8769163 13.3794714,2.01528634 C13.5156942,2.47396668 13.5764862,2.95173327 13.5594714,3.42991189 C13.5495019,3.7595433 13.5138432,4.08789543 13.4528194,4.41198238 C12.4834361,9.56378855 6.71273128,11.3007489 4.33387665,15.1168282 C2.49105727,18.0725551 3.43863436,22.1788546 5.96894273,23.9978855 C7.15837004,24.8518943 9.52295154,25.5619824 11.503348,24.9430837 L11.5655947,24.9430837 C11.4652863,24.9430837 11.2155066,25.1702643 11.1167841,25.2206167 C10.9473543,25.3088741 10.7714756,25.384156 10.5906608,25.445815 C10.2262422,25.5671896 9.84788533,25.6417952 9.4646696,25.6678414 C8.62969163,25.7285022 7.87876652,25.5520705 7.07431718,25.3530396 C5.65969163,25.0017621 4.36559471,24.3820705 3.34506608,23.3191189 C2.44268722,22.3794714 1.82656388,21.1781498 1.49035242,19.9264758 C1.38726772,19.5452237 1.31043569,19.1573544 1.26039648,18.7655947 C1.02647577,16.9485463 1.38726872,15.1330837 2.13264317,13.4722467 C2.83202643,11.9137004 3.77603524,10.4661674 4.0892511,8.75894273 C4.24268722,7.92039648 4.24784141,7.04339207 3.99885463,6.2214978 C3.76493392,5.45114537 3.30700441,4.79933921 2.77414097,4.20660793 C2.64687225,4.0646696 2.51682819,3.92629956 2.38638767,3.78753304 C2.5053304,4.85801762 2.6639207,5.93881057 2.59136564,7.01881057 C2.50215859,8.35414097 2.01171806,9.57330396 1.49986784,10.792467 C0.992378855,12.0005286 0.505110132,13.2280176 0.236299559,14.5145815 C-0.0397291267,15.8359025 -0.032296787,17.2007503 0.258105727,18.5189868 C0.731497797,20.6892952 1.99903084,22.7501762 3.55519824,24.316652 C3.98724904,24.7556465 4.46252314,25.1498928 4.97378855,25.4933921 C7.22299559,26.9040529 9.18832599,27.0352863 10.1240088,26.9956388 C10.3170925,26.9829515 10.5113656,26.9643172 10.7032599,26.9373568 C11.1448036,26.8773792 11.5803126,26.7792139 12.0048899,26.6439648 C13.9162996,26.026652 15.6211454,24.4427313 15.8411894,21.9199559 C16.003348,20.061674 15.4094273,18.6343612 14.5205286,17.7621145 Z" id="Shape"></path>
                </g>
            </g>
        </g>
    </g>
</svg>